<?xml version="1.0" standalone="no"?>
<!DOCTYPE svg PUBLIC "-//W3C//DTD SVG 20010904//EN"
 "http://www.w3.org/TR/2001/REC-SVG-20010904/DTD/svg10.dtd">
<svg version="1.0" xmlns="http://www.w3.org/2000/svg"
 width="220.000000pt" height="70.000000pt" viewBox="0 0 220.000000 70.000000"
 preserveAspectRatio="xMidYMid meet">

<g transform="translate(0.000000,70.000000) scale(0.100000,-0.100000)"
fill="#9c3405" stroke="none">
<path d="M53 680 c-12 -5 -26 -18 -32 -29 -12 -21 -16 -567 -5 -596 17 -43 38
-45 529 -45 l465 0 0 50 0 50 99 0 c82 0 103 3 122 19 l24 19 0 249 0 248 425
3 c234 1 435 0 448 -3 l22 -5 0 -283 c0 -207 -3 -286 -12 -295 -9 -9 -145 -12
-550 -12 -534 0 -538 0 -538 -20 0 -20 4 -20 556 -18 l556 3 19 24 c18 22 19
43 19 316 0 284 -1 292 -21 311 -20 18 -43 19 -498 19 l-476 0 -3 -47 -3 -48
-93 0 c-79 0 -97 -3 -120 -21 l-26 -20 0 -250 0 -249 -431 0 c-277 0 -437 4
-450 10 -18 10 -19 24 -19 288 0 203 3 281 12 290 9 9 146 12 556 12 512 0
543 1 540 18 -3 16 -38 17 -548 19 -300 1 -555 -2 -567 -7z m1142 -330 l0
-185 -90 0 -90 0 -3 175 c-1 96 0 180 3 188 3 9 27 12 92 10 l88 -3 0 -185z"/>
<path d="M190 593 c-8 -3 -25 -15 -37 -26 -22 -20 -23 -26 -23 -213 0 -242 -5
-234 146 -234 116 0 139 11 150 68 7 32 6 33 -22 30 -18 -2 -28 -8 -26 -17 1
-7 -3 -19 -9 -27 -15 -18 -159 -20 -177 -2 -17 17 -17 349 0 366 7 7 42 12 88
12 46 0 81 -5 88 -12 15 -15 16 -112 2 -139 -9 -16 -22 -19 -80 -19 -63 0 -70
-2 -70 -20 0 -18 7 -20 79 -20 110 0 124 13 129 111 5 97 -6 125 -55 138 -39
11 -157 14 -183 4z"/>
<path d="M670 392 c0 -148 -3 -211 -12 -220 -7 -7 -29 -12 -50 -12 -31 0 -38
-4 -38 -20 0 -17 7 -20 49 -20 34 0 56 6 75 21 l26 20 0 220 0 219 -25 0 -25
0 0 -208z"/>
<path d="M1314 585 c-10 -25 3 -44 25 -38 29 7 29 53 1 53 -11 0 -23 -7 -26
-15z"/>
<path d="M1680 575 c0 -20 5 -25 25 -25 20 0 25 5 25 25 0 20 -5 25 -25 25
-20 0 -25 -5 -25 -25z"/>
<path d="M1834 586 c-33 -15 -44 -33 -44 -72 0 -19 5 -24 24 -24 19 0 25 6 28
28 3 26 5 27 73 30 124 5 115 21 115 -193 0 -214 9 -198 -115 -193 l-70 3 0
80 0 80 78 3 c69 3 77 5 77 22 0 18 -7 20 -85 20 -116 0 -125 -9 -125 -128 0
-119 3 -122 143 -122 154 0 147 -11 147 240 l0 200 -27 17 c-36 24 -175 29
-219 9z"/>
<path d="M512 567 c-21 -22 -22 -32 -22 -205 l0 -182 25 0 25 0 0 173 c0 121
4 177 12 185 7 7 29 12 50 12 31 0 38 4 38 20 0 17 -7 20 -53 20 -43 0 -58 -5
-75 -23z"/>
<path d="M750 570 c0 -16 7 -20 38 -20 21 0 43 -5 50 -12 8 -8 12 -64 12 -185
l0 -173 25 0 25 0 0 183 c0 179 -1 184 -23 205 -18 17 -36 22 -75 22 -45 0
-52 -3 -52 -20z"/>
<path d="M1519 571 c-24 -19 -24 -20 -24 -238 l0 -218 25 0 25 0 3 210 c2 152
6 211 15 217 6 4 29 8 50 8 30 0 37 4 37 20 0 18 -7 20 -54 20 -38 0 -61 -6
-77 -19z"/>
<path d="M1310 360 c0 -224 7 -240 110 -240 43 0 48 2 43 20 -4 15 -14 20 -38
20 -62 0 -66 12 -63 201 l3 169 -27 0 -28 0 0 -170z"/>
<path d="M1680 355 c0 -193 -1 -195 -69 -195 -24 0 -31 -4 -31 -20 0 -17 7
-20 50 -20 41 0 56 5 75 25 25 24 25 26 25 205 l0 180 -25 0 -25 0 0 -175z"/>
<path d="M490 140 c0 -25 4 -30 25 -30 21 0 25 5 25 30 0 25 -4 30 -25 30 -21
0 -25 -5 -25 -30z"/>
<path d="M850 140 c0 -25 4 -30 25 -30 21 0 25 5 25 30 0 25 -4 30 -25 30 -21
0 -25 -5 -25 -30z"/>
</g>
</svg>
