<?xml version="1.0" standalone="no"?>
<!DOCTYPE svg PUBLIC "-//W3C//DTD SVG 20010904//EN"
 "http://www.w3.org/TR/2001/REC-SVG-20010904/DTD/svg10.dtd">
<svg version="1.0" xmlns="http://www.w3.org/2000/svg"
 width="217.000000pt" height="92.000000pt" viewBox="0 0 217.000000 92.000000"
 preserveAspectRatio="xMidYMid meet">

<g transform="translate(0.000000,92.000000) scale(0.100000,-0.100000)"
fill="#9c3405" stroke="none">
<path d="M35 895 l-25 -24 0 -279 c0 -261 1 -281 19 -303 l19 -24 461 -3 461
-3 0 51 0 50 94 0 c144 0 135 -16 139 275 l2 240 425 0 425 0 3 -279 c2 -217
-1 -281 -10 -288 -7 -4 -246 -8 -531 -8 -488 0 -518 -1 -515 -18 3 -16 37 -17
535 -17 508 0 532 1 552 19 20 19 21 27 21 307 l0 288 -26 20 c-26 21 -37 21
-480 21 l-454 0 0 -50 0 -50 -95 0 c-142 0 -135 15 -135 -280 l0 -240 -414 0
c-228 0 -421 3 -430 6 -14 5 -16 40 -16 284 0 244 2 279 16 284 9 3 247 6 530
6 507 0 514 0 514 20 0 20 -7 20 -530 20 l-531 0 -24 -25z m1110 -305 l0 -185
-85 0 -85 0 -3 179 c-2 137 1 181 10 188 7 4 47 7 88 6 l75 -3 0 -185z"/>
<path d="M157 810 l-27 -21 0 -194 0 -194 26 -20 c22 -17 41 -21 106 -21 88 0
132 16 142 52 10 39 7 48 -19 48 -18 0 -25 -5 -25 -20 0 -26 -29 -40 -87 -40
-99 0 -93 -13 -93 195 0 209 -7 195 95 195 80 0 87 -8 83 -97 l-3 -68 -72 -3
c-65 -3 -73 -5 -73 -22 0 -18 7 -20 75 -20 67 0 79 3 100 25 22 21 25 33 25
98 0 110 -12 121 -132 125 -83 3 -96 1 -121 -18z"/>
<path d="M515 818 c-43 -23 -45 -35 -45 -220 l0 -178 25 0 25 0 2 178 3 177
43 3 c37 3 42 6 42 28 0 21 -4 24 -37 24 -21 0 -47 -6 -58 -12z"/>
<path d="M638 623 l-3 -208 -42 -3 c-39 -3 -43 -6 -43 -29 0 -24 2 -25 45 -21
25 3 56 13 70 22 l25 16 0 215 0 215 -25 0 -25 0 -2 -207z"/>
<path d="M720 807 c0 -24 4 -26 48 -29 l47 -3 3 -177 2 -178 25 0 25 0 0 174
c0 168 -1 176 -23 202 -18 21 -35 28 -75 32 -50 4 -52 4 -52 -21z"/>
<path d="M1260 805 c0 -20 5 -25 25 -25 20 0 25 5 25 25 0 20 -5 25 -25 25
-20 0 -25 -5 -25 -25z"/>
<path d="M1484 820 c-50 -20 -54 -40 -54 -257 l0 -203 25 0 25 0 0 194 c0 107
3 201 6 210 4 11 19 16 50 16 40 0 44 2 44 25 0 22 -4 25 -37 24 -21 0 -48 -4
-59 -9z"/>
<path d="M1610 805 c0 -20 5 -25 25 -25 20 0 25 5 25 25 0 20 -5 25 -25 25
-20 0 -25 -5 -25 -25z"/>
<path d="M1748 810 c-14 -11 -28 -33 -30 -50 -4 -26 -1 -30 19 -30 13 0 23 6
23 14 0 31 30 46 91 46 102 0 99 6 99 -195 0 -162 -1 -175 -19 -185 -25 -13
-112 -13 -145 0 -24 9 -26 14 -26 69 0 90 1 91 86 91 67 0 74 2 74 20 0 18 -7
20 -78 20 -115 0 -122 -7 -122 -124 0 -116 3 -120 117 -125 100 -4 137 9 152
51 15 41 14 340 0 371 -16 36 -50 47 -138 47 -63 0 -83 -4 -103 -20z"/>
<path d="M1260 591 c0 -203 3 -213 73 -226 49 -10 72 -3 72 20 0 16 -8 21 -45
25 l-45 5 -5 175 c-5 172 -5 175 -27 178 l-23 3 0 -180z"/>
<path d="M1610 603 c0 -92 -4 -173 -8 -180 -4 -6 -25 -13 -47 -15 -32 -2 -40
-7 -40 -23 0 -17 6 -20 49 -19 41 0 53 5 73 28 23 27 23 31 21 199 -3 170 -3
172 -25 175 l-23 3 0 -168z"/>
<path d="M470 385 c0 -20 5 -25 25 -25 20 0 25 5 25 25 0 20 -5 25 -25 25 -20
0 -25 -5 -25 -25z"/>
<path d="M820 385 c0 -20 5 -25 25 -25 20 0 25 5 25 25 0 20 -5 25 -25 25 -20
0 -25 -5 -25 -25z"/>
<path d="M37 173 c-4 -3 -7 -30 -7 -60 0 -40 4 -53 15 -53 8 0 15 8 15 18 0 9
10 22 23 27 33 15 35 53 2 65 -31 12 -39 12 -48 3z m43 -39 c0 -8 -4 -14 -10
-14 -5 0 -10 9 -10 21 0 11 5 17 10 14 6 -3 10 -13 10 -21z"/>
<path d="M140 160 c-38 -38 -16 -100 35 -100 53 0 76 74 33 104 -30 21 -44 20
-68 -4z m55 -41 c0 -27 -4 -34 -20 -34 -24 0 -35 53 -13 66 22 14 33 4 33 -32z"/>
<path d="M263 173 c-20 -8 -15 -51 7 -63 11 -6 20 -16 20 -22 0 -5 -9 -8 -20
-5 -13 3 -20 0 -20 -10 0 -21 50 -13 64 10 9 15 6 22 -18 41 -18 15 -24 26
-17 30 6 4 16 4 22 0 7 -4 10 -1 7 7 -5 15 -26 21 -45 12z"/>
<path d="M330 171 c0 -5 7 -11 15 -15 10 -4 15 -20 15 -51 0 -25 5 -45 10 -45
6 0 10 20 10 45 0 31 5 47 15 51 28 11 15 24 -25 24 -22 0 -40 -4 -40 -9z"/>
<path d="M460 171 c0 -5 7 -11 15 -15 10 -4 15 -20 15 -51 0 -25 5 -45 10 -45
6 0 10 20 10 45 0 31 5 47 15 51 28 11 15 24 -25 24 -22 0 -40 -4 -40 -9z"/>
<path d="M572 164 c-25 -17 -31 -71 -10 -92 15 -15 61 -15 76 0 20 20 15 86
-7 98 -26 13 -33 13 -59 -6z m48 -18 c18 -23 8 -61 -17 -64 -17 -3 -24 3 -29
22 -4 16 -1 32 6 41 16 19 24 19 40 1z"/>
<path d="M720 120 l0 -60 30 0 c17 0 30 5 30 10 0 6 -9 10 -20 10 -11 0 -20 7
-20 15 0 8 9 15 20 15 11 0 20 5 20 10 0 6 -9 10 -20 10 -11 0 -20 7 -20 15 0
8 9 15 20 15 11 0 20 5 20 10 0 6 -13 10 -30 10 l-30 0 0 -60z"/>
<path d="M800 169 c0 -6 5 -19 10 -30 8 -14 7 -27 -5 -49 -13 -25 -13 -30 -2
-30 8 0 18 10 24 22 l10 23 12 -23 c6 -12 18 -22 27 -22 13 0 13 4 -1 30 -12
22 -13 35 -5 49 5 11 10 24 10 30 0 19 -17 12 -27 -11 l-10 -23 -12 23 c-12
23 -31 30 -31 11z"/>
<path d="M907 173 c-4 -3 -7 -30 -7 -60 0 -40 4 -53 15 -53 8 0 15 8 15 18 0
9 10 22 23 27 33 15 35 53 2 65 -31 12 -39 12 -48 3z m43 -39 c0 -8 -4 -14
-10 -14 -5 0 -10 9 -10 21 0 11 5 17 10 14 6 -3 10 -13 10 -21z"/>
<path d="M1000 120 l0 -60 30 0 c17 0 30 5 30 10 0 6 -9 10 -20 10 -11 0 -20
7 -20 15 0 8 9 15 20 15 11 0 20 5 20 10 0 6 -9 10 -20 10 -11 0 -20 7 -20 15
0 8 9 15 20 15 11 0 20 5 20 10 0 6 -13 10 -30 10 l-30 0 0 -60z"/>
<path d="M1090 120 c0 -33 4 -60 10 -60 6 0 10 12 10 28 l1 27 24 -30 c27 -32
43 -29 25 5 -8 15 -8 25 -1 34 15 18 4 43 -22 50 -44 12 -47 8 -47 -54z m48
22 c2 -7 -3 -12 -12 -12 -9 0 -16 7 -16 16 0 17 22 14 28 -4z"/>
<path d="M1190 120 c0 -33 4 -60 10 -60 6 0 10 27 10 60 0 33 -4 60 -10 60 -6
0 -10 -27 -10 -60z"/>
<path d="M1240 120 l0 -60 30 0 c17 0 30 5 30 10 0 6 -9 10 -20 10 -11 0 -20
7 -20 15 0 8 9 15 20 15 11 0 20 5 20 10 0 6 -9 10 -20 10 -11 0 -20 7 -20 15
0 8 9 15 20 15 11 0 20 5 20 10 0 6 -13 10 -30 10 l-30 0 0 -60z"/>
<path d="M1327 173 c-11 -10 -8 -113 2 -113 6 0 11 17 13 38 l3 37 22 -37 c12
-21 29 -38 38 -38 13 0 15 10 13 55 -3 59 -20 78 -28 32 l-5 -28 -18 30 c-18
31 -28 37 -40 24z"/>
<path d="M1462 164 c-26 -18 -30 -75 -8 -94 18 -14 58 -10 63 7 3 7 -3 10 -15
7 -29 -8 -48 21 -33 52 8 19 16 24 31 19 24 -7 27 10 4 19 -20 8 -16 9 -42
-10z"/>
<path d="M1540 120 l0 -60 30 0 c17 0 30 5 30 10 0 6 -9 10 -20 10 -11 0 -20
7 -20 15 0 8 9 15 20 15 11 0 20 5 20 10 0 6 -9 10 -20 10 -11 0 -20 7 -20 15
0 8 9 15 20 15 11 0 20 5 20 10 0 6 -13 10 -30 10 l-30 0 0 -60z"/>
</g>
</svg>
